<?xml version="1.0" standalone="no"?>
<!DOCTYPE svg PUBLIC "-//W3C//DTD SVG 20010904//EN"
 "http://www.w3.org/TR/2001/REC-SVG-20010904/DTD/svg10.dtd">
<svg version="1.0" xmlns="http://www.w3.org/2000/svg"
 width="500.000000pt" height="500.000000pt" viewBox="0 0 500.000000 500.000000"
 preserveAspectRatio="xMidYMid meet">
<metadata>
Created by potrace 1.11, written by Peter Selinger 2001-2013
</metadata>
<g transform="translate(0.000000,500.000000) scale(0.100000,-0.100000)"
fill="#000000" stroke="none">
<path d="M0 2500 l0 -2500 2500 0 2500 0 0 918 c-1 799 -3 913 -15 885 -8 -18
-16 -33 -18 -33 -2 0 -21 27 -42 60 -63 97 -146 150 -236 150 -22 0 -39 -2
-39 -3 0 -2 27 -31 60 -64 50 -50 60 -65 60 -95 0 -45 -7 -51 -36 -31 -36 23
-97 12 -205 -38 -87 -41 -100 -44 -174 -44 -64 0 -89 5 -123 23 -24 13 -45 29
-49 37 -10 27 -23 16 -23 -20 0 -97 -80 -213 -182 -264 -70 -36 -124 -42 -113
-13 4 9 14 51 23 92 22 107 14 138 -58 215 -69 75 -83 122 -55 193 22 54 67
93 163 141 83 41 139 57 243 67 72 7 95 16 85 32 -22 36 -170 21 -333 -33
-129 -43 -184 -45 -218 -10 -49 49 -23 181 64 317 l40 63 -52 6 c-69 9 -100
22 -126 55 -28 36 -27 54 13 181 19 59 37 133 41 164 13 106 -31 299 -69 299
-21 0 -20 5 -21 -205 0 -169 -1 -183 -24 -225 -39 -75 -88 -118 -159 -140 -35
-11 -86 -20 -112 -20 l-48 0 16 -57 c9 -34 16 -99 16 -158 1 -137 -28 -199
-119 -256 -45 -29 -78 -23 -163 26 -99 58 -168 84 -241 91 -61 7 -101 -6 -101
-31 0 -14 21 -22 140 -50 135 -32 280 -124 354 -225 110 -149 132 -345 62
-565 l-22 -69 -23 33 c-13 18 -27 46 -30 62 l-6 28 -53 -62 c-78 -92 -120
-184 -129 -282 l-8 -80 -49 73 c-96 144 -122 293 -72 413 l23 56 -71 -54 c-82
-64 -84 -62 -85 53 -1 90 28 188 73 247 l33 44 -61 -18 c-34 -9 -118 -20 -186
-23 -69 -4 -141 -11 -160 -16 -50 -14 -106 -64 -143 -128 l-31 -56 -9 39 c-22
100 16 233 90 315 l46 52 -39 -17 c-220 -97 -258 -109 -334 -109 -83 0 -146
23 -229 84 l-44 32 60 61 c33 34 87 96 121 138 126 157 242 228 372 229 80 1
79 12 -4 71 -41 30 -75 57 -75 60 -1 12 101 50 173 66 124 26 261 -7 375 -92
l48 -34 11 77 c8 52 24 101 50 153 l38 75 -23 18 c-31 23 -99 46 -135 46 -44
0 -93 -53 -103 -110 l-7 -44 -19 23 c-13 16 -19 39 -19 77 0 61 19 116 67 192
l33 52 -58 0 c-42 0 -70 7 -102 24 -129 71 -129 71 -233 69 l-97 -1 51 46
c173 157 287 199 464 174 47 -7 92 -15 101 -19 12 -4 9 7 -12 47 -29 55 -41
134 -30 193 l6 34 39 -37 c25 -24 67 -48 113 -65 124 -46 210 -90 279 -142
l66 -50 -38 63 c-62 101 -81 172 -87 309 -5 135 4 196 49 342 l32 101 31 -46
c27 -41 98 -105 147 -132 16 -9 16 -6 3 37 -36 118 -3 323 77 490 l42 88 7
-46 c11 -66 33 -103 122 -203 110 -124 166 -252 180 -411 l3 -30 30 45 c21 31
47 53 85 73 68 33 97 66 112 123 7 24 15 44 19 44 10 0 39 -167 39 -225 -1
-130 -48 -256 -154 -409 -86 -123 -116 -188 -115 -251 l0 -50 19 37 c19 36 82
95 190 180 47 37 76 76 94 123 6 17 65 -46 77 -83 15 -45 6 -103 -24 -162
l-25 -48 54 25 c178 81 394 6 516 -181 48 -75 50 -92 5 -66 -113 67 -332 2
-581 -172 -6 -4 8 -4 30 -1 26 3 58 -2 99 -17 182 -66 200 -72 242 -68 24 2
43 0 43 -4 0 -13 -90 -96 -133 -124 -41 -25 -45 -32 -51 -78 -9 -80 -70 -192
-139 -258 -33 -32 -58 -60 -56 -63 3 -2 41 18 85 45 105 67 135 75 289 75 115
0 135 -3 171 -22 34 -18 54 -39 54 -58 0 -1 -17 -6 -37 -10 -45 -8 -82 -27
-106 -52 -16 -19 -16 -20 32 -31 141 -32 240 -118 292 -250 18 -46 18 -12 19
1461 l0 1507 -2500 0 -2500 0 0 -2500z m391 393 c87 -52 71 -189 -26 -221 -81
-27 -155 30 -155 118 0 52 13 76 53 100 39 24 90 25 128 3z m939 -419 c69 -19
150 -73 184 -123 73 -104 86 -200 86 -612 l0 -319 -94 0 -94 0 -4 353 c-5 375
-8 407 -58 477 -12 17 -40 40 -63 53 -36 19 -57 22 -157 22 -63 0 -132 -4
-152 -8 l-38 -8 0 -444 0 -445 -95 0 -95 0 0 513 0 513 98 19 c190 36 370 39
482 9z m2238 -69 c-15 -52 -22 -110 -25 -227 -5 -159 -2 -177 28 -141 22 26
90 53 138 53 l45 0 -42 -36 c-57 -48 -107 -154 -134 -279 -37 -180 -23 -552
33 -829 22 -108 43 -158 83 -195 14 -14 26 -28 26 -33 0 -4 -106 -8 -235 -8
-129 0 -235 2 -235 4 0 2 16 27 35 56 19 28 39 68 45 88 23 80 34 239 34 512
0 227 -3 305 -17 384 -22 125 -58 234 -102 309 l-34 57 27 -6 c33 -8 97 -40
135 -66 16 -11 29 -19 31 -17 2 2 8 44 15 94 20 147 61 245 134 322 17 18 32
32 33 30 1 -1 -7 -34 -18 -72z m-3148 -460 l0 -525 -95 0 -95 0 0 525 0 525
95 0 95 0 0 -525z"/>
</g>
</svg>
